<?xml version="1.0" encoding="UTF-8"?>
<svg width="30px" height="24px" viewBox="0 0 30 24" version="1.1" xmlns="http://www.w3.org/2000/svg" xmlns:xlink="http://www.w3.org/1999/xlink">
    <!-- Generator: Sketch 50.2 (55047) - http://www.bohemiancoding.com/sketch -->
    <title>4-twitter-social-media-communication-flat</title>
    <desc>Created with Sketch.</desc>
    <defs></defs>
    <g id="Page-1" stroke="none" stroke-width="1" fill="none" fill-rule="evenodd">
        <g id="Single-Page" transform="translate(-356.000000, -4463.000000)" fill="#FFFFFF" fill-rule="nonzero">
            <g id="4-twitter-social-media-communication-flat" transform="translate(356.000000, 4463.000000)">
                <path d="M20.9263171,0.000419145856 C17.4464954,0.0635484781 14.7236377,3.02175768 14.7236377,6.46882792 L14.7236377,7.30463941 C8.53412742,6.19596312 5.4393723,4.53320955 2.08123376,1.04387918 C0.0726718368,4.89163807 2.26770922,8.15245069 4.7150679,9.9132895 C3.07734983,9.9132895 1.73356765,9.68059791 0.677400157,8.76861384 C0.597858366,8.69974548 0.47248786,8.77070076 0.500933269,8.87139465 C1.41961462,12.0889037 4.44589006,14.4299063 6.82213522,15.1305897 C4.67714069,15.1305897 3.22273748,15.4472798 1.72039848,14.490427 C1.63348195,14.4351236 1.52180738,14.5186004 1.556574,14.6151204 C2.69386358,17.779413 5.015325,18.7826998 8.40243571,18.7826998 C6.71836216,20.0098088 4.47749606,21.2990037 0.189614073,21.3876978 C0.0157810193,21.3913499 -0.0685016734,21.6063027 0.0674041686,21.7143008 C1.68615864,23.0071478 5.56684987,24 11.0362699,24 C20.0624195,24 27.3660416,16.0660516 27.3660416,6.26117937 L27.3660416,5.73944935 C28.7704019,5.21928452 29.5942653,3.9744367 29.9956616,2.72437157 C30.0183126,2.65498148 29.9482526,2.59028696 29.8787193,2.61376481 L26.9140756,3.6269645 C26.8466495,3.64992063 26.800294,3.56487863 26.8550777,3.52053158 C28.0961404,2.50837535 29.0806676,1.26300579 29.4694215,0.0750265385 C29.4846978,0.0291142969 29.4346549,-0.0126241046 29.3898797,0.00615817606 C27.9670825,0.597278287 26.6117115,1.15292076 25.5407945,1.4821324 C25.3622206,1.53743578 25.1731113,1.51447966 25.0098135,1.42369864 C24.3071066,1.03396631 22.2722063,-0.024102165 20.9263171,0.000419145856" id="Fill-61"></path>
            </g>
        </g>
    </g>
</svg>