<?xml version="1.0" encoding="UTF-8"?>
<svg width="125px" height="25px" viewBox="0 0 125 25" version="1.1" xmlns="http://www.w3.org/2000/svg" xmlns:xlink="http://www.w3.org/1999/xlink">
    <!-- Generator: Sketch 50.2 (55047) - http://www.bohemiancoding.com/sketch -->
    <title>Group 5</title>
    <desc>Created with Sketch.</desc>
    <defs>
        <!-- how to put google font in svg -->
        <!-- <style type="text/css">
            @import url('https://fonts.googleapis.com/css?family=Roboto:400,500');
        </style> -->
    </defs>
    <g id="Symbols" stroke="none" stroke-width="1" fill="none" fill-rule="evenodd">
        <g id="BrainFLixlogo">
            <g id="Group-5">
                <text id="BrainFlix" font-family="Roboto, sans-serif" font-size="20" font-style="condensed" font-weight="bold" letter-spacing="-0.35" fill="#000000">
                    <tspan x="36" y="19">BrainFlix</tspan>
                </text>
                <g id="Group-3">
                    <path d="M2.36954177,0.805546129 C6.88893392,0.268515376 11.4115127,2.60386035e-16 15.937278,0 C20.4507565,0 24.964235,0.267059392 29.4777134,0.801178177 L29.4777125,0.801185924 C30.3784374,0.907776456 31.0946649,1.60716122 31.2226556,2.50509509 C31.7408852,6.14079686 32,9.26775874 32,11.8859807 C32,14.3995884 31.761178,16.9131961 31.283534,19.4268038 L31.2835096,19.4267992 C31.1249283,20.2613353 30.4564701,20.9046443 29.6164689,21.0311214 C25.3265799,21.6770405 20.7668496,22 15.937278,22 C11.1224611,22 6.57901323,21.6790108 2.30693431,21.0370324 L2.30693385,21.0370354 C1.44784381,20.9079373 0.770337612,20.2390146 0.630297005,19.3816403 C0.210099002,16.8090511 2.49165876e-16,14.015171 0,11 C0,7.98576753 0.209968229,5.14587726 0.629904686,2.48032919 L0.629903612,2.48032902 C0.769303699,1.5954865 1.48004374,0.911243483 2.36954177,0.805546129 Z" id="Rectangle-2" fill="#0095FF"></path>
                    <path d="M20.483511,12.3951288 L13.4455762,15.8980133 C12.9511466,16.1440982 12.3508409,15.9427751 12.104756,15.4483455 C12.0358579,15.3099166 12,15.1573962 12,15.0027692 L12,7.99700027 C12,7.44471552 12.4477153,6.99700027 13,6.99700027 C13.1546269,6.99700027 13.3071474,7.03285818 13.4455762,7.10175626 L20.483511,10.6046407 C20.9779406,10.8507257 21.1792637,11.4510314 20.9331788,11.945461 C20.8362114,12.1402861 20.6783361,12.2981614 20.483511,12.3951288 Z" id="Triangle" fill="#FFFFFF"></path>
                </g>
            </g>
        </g>
    </g>
</svg>
