<?xml version="1.0" encoding="UTF-8"?>
<svg width="19px" height="19px" viewBox="0 0 19 19" version="1.1" xmlns="http://www.w3.org/2000/svg" xmlns:xlink="http://www.w3.org/1999/xlink">
    <!-- Generator: Sketch 50.2 (55047) - http://www.bohemiancoding.com/sketch -->
    <title>Full Screen</title>
    <desc>Created with Sketch.</desc>
    <defs></defs>
    <g id="Full-Screen" stroke="none" stroke-width="1" fill="none" fill-rule="evenodd">
        <g id="Group-3" fill="#FFFFFF">
            <rect id="Rectangle-6" x="0" y="0" width="2" height="8"></rect>
            <rect id="Rectangle-6-Copy" transform="translate(4.000000, 1.000000) rotate(-90.000000) translate(-4.000000, -1.000000) " x="3" y="-3" width="2" height="8"></rect>
            <rect id="Rectangle-6" transform="translate(15.000000, 1.000000) rotate(-270.000000) translate(-15.000000, -1.000000) " x="14" y="-3" width="2" height="8"></rect>
            <rect id="Rectangle-6-Copy" transform="translate(18.000000, 4.000000) rotate(-360.000000) translate(-18.000000, -4.000000) " x="17" y="0" width="2" height="8"></rect>
            <rect id="Rectangle-6" transform="translate(1.000000, 15.000000) scale(1, -1) translate(-1.000000, -15.000000) " x="0" y="11" width="2" height="8"></rect>
            <rect id="Rectangle-6-Copy" transform="translate(4.000000, 18.000000) scale(1, -1) rotate(-90.000000) translate(-4.000000, -18.000000) " x="3" y="14" width="2" height="8"></rect>
            <rect id="Rectangle-6" transform="translate(15.000000, 18.000000) scale(1, -1) rotate(-270.000000) translate(-15.000000, -18.000000) " x="14" y="14" width="2" height="8"></rect>
            <rect id="Rectangle-6-Copy" transform="translate(18.000000, 15.000000) scale(1, -1) rotate(-360.000000) translate(-18.000000, -15.000000) " x="17" y="11" width="2" height="8"></rect>
        </g>
    </g>
</svg>