<?xml version="1.0" encoding="UTF-8"?>
<svg width="20px" height="16px" viewBox="0 0 20 16" version="1.1" xmlns="http://www.w3.org/2000/svg" xmlns:xlink="http://www.w3.org/1999/xlink">
    <!-- Generator: Sketch 50.2 (55047) - http://www.bohemiancoding.com/sketch -->
    <title>Thumbs Up</title>
    <desc>Created with Sketch.</desc>
    <defs></defs>
    <g id="Page-1" stroke="none" stroke-width="1" fill="none" fill-rule="evenodd">
        <g id="Video-Streaming-Control-States-Copy" transform="translate(-674.000000, -626.000000)">
            <g id="Thumbs-Up" transform="translate(674.000000, 625.000000)">
                <g id="vote-thumbs-up">
                    <g id="Frame_-_24px">
                        <rect id="Rectangle-path" x="0" y="0" width="20" height="20"></rect>
                    </g>
                    <g id="Filled_Icons" transform="translate(0.000000, 1.666667)" fill="#888888" fill-rule="nonzero">
                        <g id="Group">
                            <path d="M4.16666667,5 L0.833333333,5 C0.3725,5 0,5.37333333 0,5.83333333 L0,14.1666667 C0,14.6266667 0.3725,15 0.833333333,15 L4.16666667,15 C4.6275,15 5,14.6266667 5,14.1666667 L5,5.83333333 C5,5.37333333 4.6275,5 4.16666667,5 Z" id="Shape"></path>
                            <path d="M18.9733333,4.46583333 C18.815,4.27666667 18.5808333,4.16666667 18.3333333,4.16666667 L13.3333333,4.16666667 L13.3333333,0.833333333 C13.3333333,0.373333333 12.9608333,0 12.5,0 L10,0 C9.66666667,0 9.365,0.198333333 9.23416667,0.504166667 L6.66666667,5.83333333 L6.66666667,13.7316667 L9.69083333,14.9408333 C9.78833333,14.98 9.89416667,15 10,15 L16.6666667,15 C17.0691667,15 17.4141667,14.7116667 17.4866667,14.3158333 L19.1533333,5.14916667 C19.1975,4.90583333 19.1308333,4.65583333 18.9733333,4.46583333 Z" id="Shape"></path>
                        </g>
                    </g>
                </g>
            </g>
        </g>
    </g>
</svg>