<?xml version="1.0" encoding="UTF-8"?>
<svg width="20px" height="15px" viewBox="0 0 20 15" version="1.1" xmlns="http://www.w3.org/2000/svg" xmlns:xlink="http://www.w3.org/1999/xlink">
    <!-- Generator: Sketch 50.2 (55047) - http://www.bohemiancoding.com/sketch -->
    <title>Thumbs Down</title>
    <desc>Created with Sketch.</desc>
    <defs></defs>
    <g id="Page-1" stroke="none" stroke-width="1" fill="none" fill-rule="evenodd">
        <g id="Video-Streaming-Control-States-Copy" transform="translate(-761.000000, -628.000000)">
            <g id="Thumbs-Down" transform="translate(761.000000, 627.000000)">
                <g id="vote-thumbs-down">
                    <g id="Frame_-_24px">
                        <rect id="Rectangle-path" x="0" y="0.0008" width="20" height="19.2"></rect>
                    </g>
                    <g id="Filled_Icons" transform="translate(0.833333, 1.600000)" fill="#888888" fill-rule="nonzero">
                        <g id="Group">
                            <path d="M15,9.6008 L18.3333333,9.6008 C18.7941667,9.6008 19.1666667,9.2424 19.1666667,8.8008 L19.1666667,0.8008 C19.1666667,0.3592 18.7941667,0.0008 18.3333333,0.0008 L15,0.0008 C14.5391667,0.0008 14.1666667,0.3592 14.1666667,0.8008 L14.1666667,8.8008 C14.1666667,9.2424 14.5391667,9.6008 15,9.6008 Z" id="Shape"></path>
                            <path d="M0.193333333,10.1136 C0.351666667,10.296 0.585833333,10.4008 0.833333333,10.4008 L5.83333333,10.4008 L5.83333333,13.6008 C5.83333333,14.0424 6.20583333,14.4008 6.66666667,14.4008 L9.16666667,14.4008 C9.5,14.4008 9.80166667,14.2104 9.9325,13.916 L12.5,8.8008 L12.5,1.2184 L9.47583333,0.0576 C9.37833333,0.02 9.2725,0.0008 9.16666667,0.0008 L2.5,0.0008 C2.0975,0.0008 1.75166667,0.2776 1.68,0.6576 L0.0133333333,9.4576 C-0.0308333333,9.6912 0.0358333333,9.9312 0.193333333,10.1136 Z" id="Shape"></path>
                        </g>
                    </g>
                </g>
            </g>
        </g>
    </g>
</svg>