<?xml version="1.0" encoding="UTF-8"?>
<svg width="32px" height="32px" viewBox="0 0 32 32" version="1.1" xmlns="http://www.w3.org/2000/svg" xmlns:xlink="http://www.w3.org/1999/xlink">
    <!-- Generator: Sketch 50.2 (55047) - http://www.bohemiancoding.com/sketch -->
    <title>3-instagram-social-media-communication-flat</title>
    <desc>Created with Sketch.</desc>
    <defs></defs>
    <g id="Page-1" stroke="none" stroke-width="1" fill="none" fill-rule="evenodd">
        <g id="Single-Page" transform="translate(-121.000000, -4459.000000)" fill-rule="nonzero">
            <g id="3-instagram-social-media-communication-flat" transform="translate(117.000000, 4455.000000)">
                <path d="M28.9082759,40 L11.0924138,40 C4.9662069,40 0,35.0337931 0,28.9082759 L0,11.0917241 C0,4.9662069 4.9662069,0 11.0924138,0 L28.9082759,0 C35.0344828,0 40,4.9662069 40,11.0917241 L40,28.9082759 C40,35.0337931 35.0344828,40 28.9082759,40" id="Fill-147"></path>
                <path d="M31,11.5 C31,10.67125 30.32875,10 29.5,10 C28.67125,10 28,10.67125 28,11.5 C28,12.32875 28.67125,13 29.5,13 C30.32875,13 31,12.32875 31,11.5" id="Fill-148" fill="#FFFFFF"></path>
                <path d="M20,26.2307692 C16.6499231,26.2307692 13.7692308,23.3500769 13.7692308,20 C13.7692308,16.6499231 16.6499231,13.7692308 20,13.7692308 C23.3500769,13.7692308 26.2307692,16.6499231 26.2307692,20 C26.2307692,23.3500769 23.3500769,26.2307692 20,26.2307692 M20,11 C15.0292308,11 11,15.0292308 11,20 C11,24.9707692 15.0292308,29 20,29 C24.9707692,29 29,24.9707692 29,20 C29,15.0292308 24.9707692,11 20,11" id="Fill-149" fill="#FFFFFF"></path>
                <path d="M33.2173913,29.330087 C33.2173913,31.4768696 31.4768696,33.2173913 29.330087,33.2173913 L10.669913,33.2173913 C8.52313043,33.2173913 6.7826087,31.4768696 6.7826087,29.330087 L6.7826087,10.669913 C6.7826087,8.52313043 8.52313043,6.7826087 10.669913,6.7826087 L29.330087,6.7826087 C31.4768696,6.7826087 33.2173913,8.52313043 33.2173913,10.669913 L33.2173913,29.330087 Z M29.0434783,4 L10.9565217,4 C7.11443478,4 4,7.11443478 4,10.9565217 L4,29.0434783 C4,32.8855652 7.11443478,36 10.9565217,36 L29.0434783,36 C32.8855652,36 36,32.8855652 36,29.0434783 L36,10.9565217 C36,7.11443478 32.8855652,4 29.0434783,4 Z" id="Fill-150" fill="#FFFFFF"></path>
            </g>
        </g>
    </g>
</svg>