<?xml version="1.0" encoding="UTF-8"?>
<svg width="17px" height="21px" viewBox="0 0 17 21" version="1.1" xmlns="http://www.w3.org/2000/svg" xmlns:xlink="http://www.w3.org/1999/xlink">
    <!-- Generator: Sketch 50.2 (55047) - http://www.bohemiancoding.com/sketch -->
    <title>Group</title>
    <desc>Created with Sketch.</desc>
    <defs></defs>
    <g id="Symbols" stroke="none" stroke-width="1" fill="none" fill-rule="evenodd">
        <g id="Icon/Inventory/White" transform="translate(-3.000000, -1.000000)" fill="#FFFFFF" fill-rule="nonzero">
            <g id="file-notes-document">
                <g id="Line_Icons" transform="translate(3.529412, 1.000000)">
                    <g id="Group">
                        <rect id="Rectangle-path" x="3.54646206" y="11.375" width="8.86615516" height="1.75"></rect>
                        <rect id="Rectangle-path" x="3.54646206" y="7.875" width="7.09292413" height="1.75"></rect>
                        <rect id="Rectangle-path" x="3.54646206" y="14.875" width="8.86615516" height="1.75"></rect>
                        <path d="M14.1858483,1.75 L12.4126172,1.75 L12.4126172,0.875 C12.4126172,0.392 12.0154135,0 11.5260017,0 C11.0365899,0 10.6393862,0.392 10.6393862,0.875 L10.6393862,1.75 L8.86615516,1.75 L8.86615516,0.875 C8.86615516,0.392 8.46895141,0 7.97953964,0 C7.49012788,0 7.09292413,0.392 7.09292413,0.875 L7.09292413,1.75 L5.31969309,1.75 L5.31969309,0.875 C5.31969309,0.392 4.92248934,0 4.43307758,0 C3.94366581,0 3.54646206,0.392 3.54646206,0.875 L3.54646206,1.75 L1.77323103,1.75 C0.795294118,1.75 0,2.534 0,3.5 L0,19.25 C0,20.215125 0.795294118,21 1.77323103,21 L14.1858483,21 C15.1637852,21 15.9590793,20.215125 15.9590793,19.25 L15.9590793,3.5 C15.9590793,2.534 15.1637852,1.75 14.1858483,1.75 Z M1.77323103,19.25 L1.77323103,3.5 L3.54646206,3.5 L3.54646206,4.375 C3.54646206,4.858875 3.94366581,5.25 4.43307758,5.25 C4.92248934,5.25 5.31969309,4.858875 5.31969309,4.375 L5.31969309,3.5 L7.09292413,3.5 L7.09292413,4.375 C7.09292413,4.858875 7.49012788,5.25 7.97953964,5.25 C8.46895141,5.25 8.86615516,4.858875 8.86615516,4.375 L8.86615516,3.5 L10.6393862,3.5 L10.6393862,4.375 C10.6393862,4.858875 11.0365899,5.25 11.5260017,5.25 C12.0154135,5.25 12.4126172,4.858875 12.4126172,4.375 L12.4126172,3.5 L14.1858483,3.5 L14.1867349,19.25 L1.77323103,19.25 Z" id="Shape"></path>
                    </g>
                </g>
            </g>
        </g>
    </g>
</svg>