<?xml version="1.0" encoding="UTF-8"?>
<svg width="18px" height="19px" viewBox="0 0 18 19" version="1.1" xmlns="http://www.w3.org/2000/svg" xmlns:xlink="http://www.w3.org/1999/xlink">
    <!-- Generator: Sketch 50.2 (55047) - http://www.bohemiancoding.com/sketch -->
    <title>Shape</title>
    <desc>Created with Sketch.</desc>
    <defs></defs>
    <g id="Symbols" stroke="none" stroke-width="1" fill="none" fill-rule="evenodd">
        <g id="Icon/Location/White" transform="translate(-3.000000, -2.000000)" fill="#FFFFFF" fill-rule="nonzero">
            <g id="location-map">
                <g id="Line_Icons" transform="translate(3.500000, 2.560000)">
                    <path d="M16.6018421,14.2488263 C16.8505789,14.0823274 17,13.8006294 17,13.5000315 L17,0.900119763 C17,0.568022089 16.8183684,0.262924225 16.5275789,0.107225316 C16.2367895,-0.0502735811 15.8833684,-0.0331737009 15.6095789,0.151325007 L10.7851579,3.38680235 L6.82236842,0.197224685 C6.68815789,0.091925423 6.48684211,0.014525965 6.29447368,0.00732601547 C6.11015789,0.000126065896 5.90526316,0.0595256499 5.76657895,0.151325007 L0.398157895,3.75129979 C0.149421053,3.91869862 0,4.20039665 0,4.50009455 L0,17.1000063 C0,17.432104 0.181631579,17.7372018 0.472421053,17.8938007 C0.604842105,17.9658002 0.749789474,18 0.894736842,18 C1.06831579,18 1.241,17.9496004 1.39131579,17.8488011 L6.21573684,14.6142237 L10.1785263,17.8029014 C10.3395789,17.9334005 10.5373158,18 10.7368421,18 C10.9748421,18 11.0902632,17.9343005 11.2280526,17.8416011 L16.6018421,14.2488263 Z M1.78947368,4.98159118 L5.36842105,2.58220798 L5.36842105,13.0185349 L1.78947368,15.4188181 L1.78947368,4.98159118 Z M9.84210526,15.2280194 L7.15789474,13.0680345 L7.15789474,2.77390664 L9.84210526,4.93299152 L9.84210526,15.2280194 Z M15.2105263,13.0185349 L11.6315789,15.4188181 L11.6315789,4.98159118 L15.2105263,2.58220798 L15.2105263,13.0185349 Z" id="Shape"></path>
                </g>
            </g>
        </g>
    </g>
</svg>