<?xml version="1.0" encoding="UTF-8"?>
<svg width="18px" height="20px" viewBox="0 0 18 20" version="1.1" xmlns="http://www.w3.org/2000/svg" xmlns:xlink="http://www.w3.org/1999/xlink">
    <!-- Generator: Sketch 50.2 (55047) - http://www.bohemiancoding.com/sketch -->
    <title>bin</title>
    <desc>Created with Sketch.</desc>
    <defs></defs>
    <g id="Styleguide" stroke="none" stroke-width="1" fill="none" fill-rule="evenodd">
        <g transform="translate(-325.000000, -4666.000000)" fill="#ADADAD" fill-rule="nonzero" id="bin">
            <g transform="translate(325.000000, 4666.000000)">
                <g id="Filled_Icons">
                    <g id="Group">
                        <polygon id="Shape" points="12 2.10421053 12 0 6 0 6 2.10421053 0 2.10421053 0 4.20947368 18 4.20947368 18 2.10421053"></polygon>
                        <path d="M2,5.26210526 L2,17.8936842 C2,19.0536842 2.897,19.9989474 4,19.9989474 L14,19.9989474 C15.103,19.9989474 16,19.0536842 16,17.8936842 L16,5.26210526 L2,5.26210526 Z M8,15.7894737 L6,15.7894737 L6,9.47368421 L8,9.47368421 L8,15.7894737 Z M12,15.7894737 L10,15.7894737 L10,9.47368421 L12,9.47368421 L12,15.7894737 Z" id="Shape"></path>
                    </g>
                </g>
            </g>
        </g>
    </g>
</svg>