<?xml version="1.0" encoding="UTF-8"?>
<svg width="93px" height="13px" viewBox="0 0 93 13" version="1.1" xmlns="http://www.w3.org/2000/svg" xmlns:xlink="http://www.w3.org/1999/xlink">
    <!-- Generator: Sketch 50.2 (55047) - http://www.bohemiancoding.com/sketch -->
    <title>Group 3</title>
    <desc>Created with Sketch.</desc>
    <defs></defs>
    <g id="Symbols" stroke="none" stroke-width="1" fill="none" fill-rule="evenodd">
        <g id="Wordmark" fill="#FFFFFF">
            <g id="Group-3">
                <path d="M26.3,1.952 L26.3,11 L23.948,11 L23.948,1.952 L26.3,1.952 Z M30.066,11 L30.066,1.952 L32.418,1.952 L36.762,7.484 L36.762,1.952 L39.102,1.952 L39.102,11 L36.762,11 L32.418,5.468 L32.418,11 L30.066,11 Z M47.836,4.268 C47.5799987,4.05999896 47.3240013,3.9060005 47.068,3.806 C46.8119987,3.7059995 46.5640012,3.656 46.324,3.656 C46.0199985,3.656 45.772001,3.72799928 45.58,3.872 C45.387999,4.01600072 45.292,4.20399884 45.292,4.436 C45.292,4.5960008 45.3399995,4.72799948 45.436,4.832 C45.5320005,4.93600052 45.6579992,5.02599962 45.814,5.102 C45.9700008,5.17800038 46.145999,5.24399972 46.342,5.3 C46.538001,5.35600028 46.731999,5.41599968 46.924,5.48 C47.6920038,5.73600128 48.2539982,6.07799786 48.61,6.506 C48.9660018,6.93400214 49.144,7.49199656 49.144,8.18 C49.144,8.64400232 49.0660008,9.06399812 48.91,9.44 C48.7539992,9.81600188 48.5260015,10.1379987 48.226,10.406 C47.9259985,10.6740013 47.5580022,10.8819993 47.122,11.03 C46.6859978,11.1780007 46.1920028,11.252 45.64,11.252 C44.4959943,11.252 43.4360049,10.9120034 42.46,10.232 L43.468,8.336 C43.8200018,8.64800156 44.1679983,8.87999924 44.512,9.032 C44.8560017,9.18400076 45.1959983,9.26 45.532,9.26 C45.9160019,9.26 46.2019991,9.17200088 46.39,8.996 C46.5780009,8.81999912 46.672,8.62000112 46.672,8.396 C46.672,8.25999932 46.6480002,8.1420005 46.6,8.042 C46.5519998,7.9419995 46.4720006,7.85000042 46.36,7.766 C46.2479994,7.68199958 46.1020009,7.60400036 45.922,7.532 C45.7419991,7.45999964 45.5240013,7.38000044 45.268,7.292 C44.9639985,7.19599952 44.6660015,7.09000058 44.374,6.974 C44.0819985,6.85799942 43.8220011,6.70400096 43.594,6.512 C43.3659989,6.31999904 43.1820007,6.07800146 43.042,5.786 C42.9019993,5.49399854 42.832,5.12400224 42.832,4.676 C42.832,4.22799776 42.9059993,3.82200182 43.054,3.458 C43.2020007,3.09399818 43.4099987,2.7820013 43.678,2.522 C43.9460013,2.2619987 44.2739981,2.06000072 44.662,1.916 C45.0500019,1.77199928 45.4839976,1.7 45.964,1.7 C46.4120022,1.7 46.8799976,1.76199938 47.368,1.886 C47.8560024,2.01000062 48.3239978,2.1919988 48.772,2.432 L47.836,4.268 Z M55.982,3.944 L55.982,11 L53.63,11 L53.63,3.944 L51.698,3.944 L51.698,1.952 L57.914,1.952 L57.914,3.944 L55.982,3.944 Z M62.796,6.476 C62.796,6.8360018 62.8639993,7.16799848 63,7.472 C63.1360007,7.77600152 63.3199988,8.03999888 63.552,8.264 C63.7840012,8.48800112 64.0539985,8.66199938 64.362,8.786 C64.6700015,8.91000062 64.9959983,8.972 65.34,8.972 C65.6840017,8.972 66.0099985,8.91000062 66.318,8.786 C66.6260015,8.66199938 66.8979988,8.48800112 67.134,8.264 C67.3700012,8.03999888 67.5559993,7.77600152 67.692,7.472 C67.8280007,7.16799848 67.896,6.8360018 67.896,6.476 C67.896,6.1159982 67.8280007,5.78400152 67.692,5.48 C67.5559993,5.17599848 67.3700012,4.91200112 67.134,4.688 C66.8979988,4.46399888 66.6260015,4.29000062 66.318,4.166 C66.0099985,4.04199938 65.6840017,3.98 65.34,3.98 C64.9959983,3.98 64.6700015,4.04199938 64.362,4.166 C64.0539985,4.29000062 63.7840012,4.46399888 63.552,4.688 C63.3199988,4.91200112 63.1360007,5.17599848 63,5.48 C62.8639993,5.78400152 62.796,6.1159982 62.796,6.476 Z M60.336,6.476 C60.336,5.80399664 60.4599988,5.1780029 60.708,4.598 C60.9560012,4.0179971 61.2999978,3.51200216 61.74,3.08 C62.1800022,2.64799784 62.7059969,2.31000122 63.318,2.066 C63.9300031,1.82199878 64.6039963,1.7 65.34,1.7 C66.0680036,1.7 66.7399969,1.82199878 67.356,2.066 C67.9720031,2.31000122 68.5019978,2.64799784 68.946,3.08 C69.3900022,3.51200216 69.7359988,4.0179971 69.984,4.598 C70.2320012,5.1780029 70.356,5.80399664 70.356,6.476 C70.356,7.14800336 70.2320012,7.7739971 69.984,8.354 C69.7359988,8.9340029 69.3900022,9.43999784 68.946,9.872 C68.5019978,10.3040022 67.9720031,10.6419988 67.356,10.886 C66.7399969,11.1300012 66.0680036,11.252 65.34,11.252 C64.6039963,11.252 63.9300031,11.1300012 63.318,10.886 C62.7059969,10.6419988 62.1800022,10.3040022 61.74,9.872 C61.2999978,9.43999784 60.9560012,8.9340029 60.708,8.354 C60.4599988,7.7739971 60.336,7.14800336 60.336,6.476 Z M80.23,4.976 C79.6859973,4.31199668 79.014004,3.98 78.214,3.98 C77.8619982,3.98 77.5360015,4.04399936 77.236,4.172 C76.9359985,4.30000064 76.6780011,4.4739989 76.462,4.694 C76.2459989,4.9140011 76.0760006,5.17599848 75.952,5.48 C75.8279994,5.78400152 75.766,6.11199824 75.766,6.464 C75.766,6.8240018 75.8279994,7.15599848 75.952,7.46 C76.0760006,7.76400152 76.2479989,8.02799888 76.468,8.252 C76.6880011,8.47600112 76.9459985,8.65199936 77.242,8.78 C77.5380015,8.90800064 77.8579983,8.972 78.202,8.972 C78.9540038,8.972 79.629997,8.6520032 80.23,8.012 L80.23,10.796 L79.99,10.88 C79.6299982,11.0080006 79.2940016,11.1019997 78.982,11.162 C78.6699984,11.2220003 78.3620015,11.252 78.058,11.252 C77.4339969,11.252 76.8360029,11.1340012 76.264,10.898 C75.6919971,10.6619988 75.1880022,10.3300021 74.752,9.902 C74.3159978,9.47399786 73.9660013,8.96600294 73.702,8.378 C73.4379987,7.78999706 73.306,7.14800348 73.306,6.452 C73.306,5.75599652 73.4359987,5.1180029 73.696,4.538 C73.9560013,3.9579971 74.3039978,3.4580021 74.74,3.038 C75.1760022,2.6179979 75.6819971,2.29000118 76.258,2.054 C76.8340029,1.81799882 77.4379968,1.7 78.07,1.7 C78.4300018,1.7 78.7839983,1.73799962 79.132,1.814 C79.4800017,1.89000038 79.8459981,2.0079992 80.23,2.168 L80.23,4.976 Z M86.324,5.684 L89.192,1.952 L92.096,1.952 L88.508,6.236 L92.432,11 L89.384,11 L86.324,7.076 L86.324,11 L83.972,11 L83.972,1.952 L86.324,1.952 L86.324,5.684 Z" id="INSTOCK"></path>
                <g id="Line_Icons" transform="translate(8.500000, 6.500000) rotate(-90.000000) translate(-8.500000, -6.500000) translate(2.166667, -1.416667)" fill-rule="nonzero">
                    <g id="Group">
                        <path d="M1.58333333,3.95833333 L4.75,3.95833333 L4.75,6.33333333 L7.91666667,3.16666667 L4.75,0 L4.75,2.375 L1.58333333,2.375 C0.709333333,2.375 0,3.085125 0,3.95833333 L0,11.875 C0,12.7482083 0.709333333,13.4583333 1.58333333,13.4583333 L3.16666667,13.4583333 L3.16666667,11.875 L1.58333333,11.875 L1.58333333,3.95833333 Z" id="Shape"></path>
                        <path d="M11.0833333,2.375 L9.5,2.375 L9.5,3.95833333 L11.0833333,3.95833333 L11.0833333,11.875 L7.91666667,11.875 L7.91666667,9.5 L4.75,12.6666667 L7.91666667,15.8333333 L7.91666667,13.4583333 L11.0833333,13.4583333 C11.9573333,13.4583333 12.6666667,12.7482083 12.6666667,11.875 L12.6666667,3.95833333 C12.6666667,3.085125 11.9573333,2.375 11.0833333,2.375 Z" id="Shape"></path>
                    </g>
                </g>
            </g>
        </g>
    </g>
</svg>